/* XPM */
static char * C:\Users\Home\Desktop\pixmaps\bitcoin32_xpm[] = {
"32 32 275 2",
"  	c None",
". 	c #4D350F",
"+ 	c #AD7221",
"@ 	c #BE7F26",
"# 	c #8A5C1B",
"$ 	c #060501",
"% 	c #A26E20",
"& 	c #FFC73A",
"* 	c #FFBD37",
"= 	c #FFB736",
"- 	c #FFC539",
"; 	c #EFA731",
"> 	c #32220A",
", 	c #2E1F09",
"' 	c #000000",
") 	c #080501",
"! 	c #050401",
"~ 	c #0D0802",
"{ 	c #3B250B",
"] 	c #825519",
"^ 	c #795B1A",
"/ 	c #FFD03C",
"( 	c #FFA02F",
"_ 	c #F69B2D",
": 	c #F69C2D",
"< 	c #F8992D",
"[ 	c #FFBF37",
"} 	c #BF902A",
"| 	c #664314",
"1 	c #462C0D",
"2 	c #080201",
"3 	c #E39F2E",
"4 	c #FFB033",
"5 	c #F79C2D",
"6 	c #F89E2E",
"7 	c #FE9D2D",
"8 	c #FFB133",
"9 	c #7E5E1C",
"0 	c #7A5418",
"a 	c #825719",
"b 	c #2C210A",
"c 	c #FFAB32",
"d 	c #FFA32F",
"e 	c #F89D2E",
"f 	c #FFB134",
"g 	c #8F601C",
"h 	c #9C641D",
"i 	c #905B1A",
"j 	c #774B16",
"k 	c #4A300E",
"l 	c #130D03",
"m 	c #462D0D",
"n 	c #1E1306",
"o 	c #F0A230",
"p 	c #FFA931",
"q 	c #FE9C2E",
"r 	c #FFBA37",
"s 	c #33250B",
"t 	c #9A651E",
"u 	c #211506",
"v 	c #43280C",
"w 	c #6B4D16",
"x 	c #FFCA3B",
"y 	c #F9992D",
"z 	c #F79B2E",
"A 	c #F79C2E",
"B 	c #FFC038",
"C 	c #D39D2D",
"D 	c #6D4414",
"E 	c #694815",
"F 	c #8C631D",
"G 	c #875E1B",
"H 	c #AC7823",
"I 	c #FFC93A",
"J 	c #FFB635",
"K 	c #FFB535",
"L 	c #FFC63A",
"M 	c #F5AD33",
"N 	c #30210A",
"O 	c #92671F",
"P 	c #AF7C24",
"Q 	c #1A1306",
"R 	c #724C16",
"S 	c #CD8E29",
"T 	c #CA8B29",
"U 	c #93631D",
"V 	c #161005",
"W 	c #040200",
"X 	c #805B1A",
"Y 	c #100902",
"Z 	c #714C16",
"` 	c #180C03",
" .	c #5E4113",
"..	c #E2982C",
"+.	c #F3A22F",
"@.	c #8A601C",
"#.	c #39210A",
"$.	c #5A3B11",
"%.	c #5A3811",
"&.	c #C77B24",
"*.	c #100802",
"=.	c #2C1F09",
"-.	c #573911",
";.	c #FFCB3B",
">.	c #FFB835",
",.	c #FFAE33",
"'.	c #FFD43D",
").	c #946A1E",
"!.	c #A37221",
"~.	c #B7922A",
"{.	c #BF8E2A",
"].	c #FFBB37",
"^.	c #F6982D",
"/.	c #F79B2D",
"(.	c #F4A630",
"_.	c #110902",
":.	c #694213",
"<.	c #0A0401",
"[.	c #CA942C",
"}.	c #F7992C",
"|.	c #F79A2D",
"1.	c #FFAF33",
"2.	c #EBA330",
"3.	c #0B0501",
"4.	c #35220A",
"5.	c #422F0E",
"6.	c #6E4B16",
"7.	c #FFCF3D",
"8.	c #FFB435",
"9.	c #FFB434",
"0.	c #FFD23D",
"a.	c #7D5B1A",
"b.	c #9A611C",
"c.	c #150D04",
"d.	c #674414",
"e.	c #6D4915",
"f.	c #533910",
"g.	c #6F4E17",
"h.	c #E59A2D",
"i.	c #E2982D",
"j.	c #755318",
"k.	c #271C08",
"l.	c #C98B29",
"m.	c #E99F2E",
"n.	c #604113",
"o.	c #7D5017",
"p.	c #0A0702",
"q.	c #774C16",
"r.	c #FFD43E",
"s.	c #634012",
"t.	c #CF972C",
"u.	c #FFBB36",
"v.	c #34210A",
"w.	c #815318",
"x.	c #0C0802",
"y.	c #714915",
"z.	c #EBB334",
"A.	c #FFD33D",
"B.	c #907321",
"C.	c #151305",
"D.	c #F7B535",
"E.	c #FFA730",
"F.	c #FF992C",
"G.	c #4E4012",
"H.	c #AC6C1F",
"I.	c #563C12",
"J.	c #704F17",
"K.	c #FFBA36",
"L.	c #211907",
"M.	c #120B03",
"N.	c #A67121",
"O.	c #FFD03D",
"P.	c #FFCE3C",
"Q.	c #CC8B28",
"R.	c #40280C",
"S.	c #231306",
"T.	c #1A1005",
"U.	c #694915",
"V.	c #FFAC33",
"W.	c #583E12",
"X.	c #7A5117",
"Y.	c #704915",
"Z.	c #DDB133",
"`.	c #33220A",
" +	c #FFBF38",
".+	c #FFB234",
"++	c #F3AF33",
"@+	c #150B03",
"#+	c #B97B24",
"$+	c #7A5C1B",
"%+	c #463A11",
"&+	c #FFCC3B",
"*+	c #FF9E2E",
"=+	c #F8B334",
"-+	c #190F04",
";+	c #8A631D",
">+	c #150803",
",+	c #905C1B",
"'+	c #BF7A24",
")+	c #2B1B08",
"!+	c #020100",
"~+	c #B47D25",
"{+	c #AD7522",
"]+	c #FFC238",
"^+	c #795318",
"/+	c #130602",
"(+	c #C58026",
"_+	c #95651E",
":+	c #4C2E0E",
"<+	c #3C2A0C",
"[+	c #422E0D",
"}+	c #4D3610",
"|+	c #39280C",
"1+	c #3E280C",
"2+	c #6D4815",
"3+	c #211306",
"4+	c #251B08",
"5+	c #251907",
"6+	c #C78627",
"7+	c #FFBE38",
"8+	c #D28E2A",
"9+	c #201807",
"0+	c #4B290C",
"a+	c #211406",
"b+	c #BE912A",
"c+	c #865B1A",
"d+	c #CB982C",
"e+	c #FFC439",
"f+	c #FE9F2E",
"g+	c #FC9C2D",
"h+	c #DBA230",
"i+	c #31220A",
"j+	c #BC8025",
"k+	c #644815",
"l+	c #F7972C",
"m+	c #FA9A2D",
"n+	c #523A11",
"o+	c #6A4515",
"p+	c #986B1F",
"q+	c #D7922A",
"r+	c #7E5419",
"s+	c #C78E29",
"t+	c #8C5619",
"u+	c #714815",
"v+	c #A06F21",
"w+	c #DF982C",
"x+	c #FFBC36",
"y+	c #885F1C",
"z+	c #291E09",
"A+	c #271A08",
"B+	c #9C7221",
"C+	c #F7982C",
"D+	c #FFA12F",
"E+	c #FFB836",
"F+	c #745419",
"G+	c #130B03",
"H+	c #8F591A",
"I+	c #1D1105",
"J+	c #E9AC32",
"K+	c #FFA430",
"L+	c #835D1B",
"M+	c #603F12",
"N+	c #060301",
"O+	c #1A1105",
"P+	c #50320F",
"Q+	c #A36B1F",
"R+	c #221A07",
"S+	c #C78727",
"T+	c #F8A430",
"U+	c #80591A",
"V+	c #D6972C",
"W+	c #B78026",
"X+	c #271907",
"Y+	c #3D2B0D",
"Z+	c #0C0702",
"                . + @ # $                                       ",
"              % & * = - ; >   , ' ) ! ~ { ]                     ",
"            ^ / ( _ : < [ }   | ' ' ' ' ' ' ' 1                 ",
"          2 3 4 5 6 6 6 7 8 9 0 ' ' ' ' ' ' ' ' ' a             ",
"          b c d 6 6 6 6 e f g   h i j k l ' ' ' ' ' m           ",
"          n o p e 6 6 6 q r s             t u ' ' ' ' v         ",
"            w x y z A < B C                   D ' ' ' ' E       ",
"        F G   H I J K L M N                     O ' ' ' ' P     ",
"        ' Q     R S T U V         W               X ' ' ' Y     ",
"      Z ' ' `                  ...+.@.'             #.' $.%.&.  ",
"      *.' ' =.              -.;.>.,.'.).                        ",
"    !.' ' ' ~.              {.].^./.c (._.                      ",
"    :.' ' <.                [.>.}.|.1.2.3.                      ",
"    4.' ' 5.                6.7.8.9.0.a.                        ",
"  b.c.' ' d.          e.f.    g.h.i.j.    k.l.m.n.              ",
"  o.p.' ' q.        % r.I s.    ' '       t.;.u.B v.            ",
"  w.x.' ' y.        z.u.A.B.            C.D.E.F.x G.            ",
"  H.n ' ' I.        J.K.h.L.      c.M.    N.O.P.Q.'             ",
"    R.' ' S.          T.~       U.4 V.W.    e.X.!               ",
"    Y.' ' ' Z.                `. +.+K.++@+                      ",
"    #+' ' ' $+                %+&+*+4 =+-+          ;+>+,+U '+  ",
"      )+' ' !+~+                {+x ]+^+            /+' ' ' (+  ",
"      _+' ' :+    <+E [+          }+|+            1+' ' ' 2+    ",
"        3+4+  5+6+u.7+].8+9+                    0+' ' ' a+      ",
"        b+c+  d+e+f+g+f+L h+'                 i+' ' ' ' j+      ",
"            k+& l+6 6 6 m+& n+            o+' ' ' ' ' p+        ",
"            q+4 e 6 6 6 5 K.r+  s+t+u+4.!+' ' ' ' ' v+          ",
"            w+1.e 6 6 6 /.x+y+  z+' ' ' ' ' ' ' A+              ",
"            B+& C+6 6 5 D+E+F+  ' ' ' ' ' ' G+H+                ",
"            I+J+- K+D+,.O.L+  M+' ' N+O+P+Q+                    ",
"              R+S+,.f T+U+    V+W+                              ",
"                  X+Y+Z+                                        "};
