/* XPM */
static char * C:\Users\Home\Pictures\Civ\real\New folder\new\bitcoin32_xpm[] = {
"32 32 317 2",
"  	c None",
". 	c #272727",
"+ 	c #3D3D3D",
"@ 	c #383838",
"# 	c #414141",
"$ 	c #666666",
"% 	c #2B2B2B",
"& 	c #535353",
"* 	c #818181",
"= 	c #C1C1C1",
"- 	c #E5E5E5",
"; 	c #F2F2F2",
"> 	c #FCFCFC",
", 	c #C2C2C2",
"' 	c #7D7D7D",
") 	c #505050",
"! 	c #2A2A2A",
"~ 	c #1F1F1F",
"{ 	c #4B4B4B",
"] 	c #ACACAC",
"^ 	c #F9F9F9",
"/ 	c #FFFFFF",
"( 	c #ABABAB",
"_ 	c #4A4A4A",
": 	c #202020",
"< 	c #8A8A8A",
"[ 	c #FDEEDC",
"} 	c #FCE8D0",
"| 	c #FAD0A1",
"1 	c #F6B264",
"2 	c #FEFEFE",
"3 	c #888888",
"4 	c #1C1C1C",
"5 	c #C7C7C7",
"6 	c #F6AF5D",
"7 	c #F7BB75",
"8 	c #FBD9B2",
"9 	c #F5A243",
"0 	c #F6B161",
"a 	c #1E1E1E",
"b 	c #232323",
"c 	c #DADADA",
"d 	c #FDEEDE",
"e 	c #F49D39",
"f 	c #FAD5AA",
"g 	c #FFFCF8",
"h 	c #FBDEBB",
"i 	c #FBDFBF",
"j 	c #DBDBDB",
"k 	c #222222",
"l 	c #0F0F0F",
"m 	c #CECECE",
"n 	c #F8C07F",
"o 	c #FEF8F2",
"p 	c #FDEFDE",
"q 	c #FFFCFA",
"r 	c #F7BC79",
"s 	c #F6A23F",
"t 	c #FBE4CB",
"u 	c #F9CA94",
"v 	c #9E9E9E",
"w 	c #FBD9B1",
"x 	c #FAD4A7",
"y 	c #FFFEFD",
"z 	c #F7BB76",
"A 	c #FDEBD7",
"B 	c #FEF9F3",
"C 	c #FFC765",
"D 	c #FAA74C",
"E 	c #FBDAB4",
"F 	c #FCE0C1",
"G 	c #A0A0A0",
"H 	c #FDF0E1",
"I 	c #FAD1A2",
"J 	c #FCE2C4",
"K 	c #FBD7AE",
"L 	c #FCE5CC",
"M 	c #FDECD9",
"N 	c #FAD2A6",
"O 	c #FFDDB2",
"P 	c #FBF6ED",
"Q 	c #F2E6D6",
"R 	c #FFEFD9",
"S 	c #F8C386",
"T 	c #F5A549",
"U 	c #F9CD9B",
"V 	c #CACACA",
"W 	c #F8C589",
"X 	c #FCE5CB",
"Y 	c #FDEDDB",
"Z 	c #F6BE7E",
"` 	c #F99E3A",
" .	c #FFB049",
"..	c #FFBD40",
"+.	c #FFB93E",
"@.	c #FFE24B",
"#.	c #E4DED1",
"$.	c #4D4D57",
"%.	c #73737C",
"&.	c #FAD1A3",
"*.	c #F9C78E",
"=.	c #FAD3A6",
"-.	c #CBCBCB",
";.	c #525252",
">.	c #F8BE7C",
",.	c #F7B971",
"'.	c #FBE2C7",
").	c #FCA73B",
"!.	c #FFB544",
"~.	c #F5D3A7",
"{.	c #EBE4DC",
"].	c #ECE6E1",
"^.	c #C6C1BF",
"/.	c #000019",
"(.	c #4D4E5E",
"_.	c #EBDBC5",
":.	c #FFE3B9",
"<.	c #F6AF60",
"[.	c #FCE7CE",
"}.	c #FFFDFA",
"|.	c #FAD7AD",
"1.	c #F4A03E",
"2.	c #F4A957",
"3.	c #FFAD3C",
"4.	c #FFD283",
"5.	c #D3D3D7",
"6.	c #60626C",
"7.	c #27273A",
"8.	c #3B3B4A",
"9.	c #161F2D",
"0.	c #00051A",
"a.	c #DBDDDD",
"b.	c #F9E0AD",
"c.	c #FFA13A",
"d.	c #FCE1C3",
"e.	c #FAD2A5",
"f.	c #2F2F2F",
"g.	c #C9C9C9",
"h.	c #FDE9D3",
"i.	c #FAD0A0",
"j.	c #FBDBB7",
"k.	c #F39C39",
"l.	c #FEA33A",
"m.	c #FFCD84",
"n.	c #575763",
"o.	c #00131D",
"p.	c #051720",
"q.	c #00111C",
"r.	c #000D1C",
"s.	c #7C7C88",
"t.	c #FFC76E",
"u.	c #FEF3E7",
"v.	c #F7B76E",
"w.	c #2E2E2E",
"x.	c #3C3C3C",
"y.	c #FEFAF6",
"z.	c #FEFAF4",
"A.	c #F7B972",
"B.	c #F29838",
"C.	c #FFCC5E",
"D.	c #52525C",
"E.	c #00121D",
"F.	c #2E3C45",
"G.	c #C1C5C8",
"H.	c #C0C4C7",
"I.	c #081924",
"J.	c #72727E",
"K.	c #FFFAEF",
"L.	c #F39B39",
"M.	c #F8C385",
"N.	c #F9CA93",
"O.	c #444444",
"P.	c #F5F5F5",
"Q.	c #F5A244",
"R.	c #FEF7EE",
"S.	c #F49C3A",
"T.	c #FFA83C",
"U.	c #FAE2C1",
"V.	c #C6C6C8",
"W.	c #3B4851",
"X.	c #ECEDEE",
"Y.	c #F2F2F3",
"Z.	c #F9C891",
"`.	c #F49F3D",
" +	c #F6F6F6",
".+	c #454545",
"++	c #626262",
"@+	c #FBDEBD",
"#+	c #FBD8B0",
"$+	c #FFBE44",
"%+	c #F1EDE7",
"&+	c #4E4E5B",
"*+	c #CACDD0",
"=+	c #FDEBD6",
"-+	c #F7BA74",
";+	c #646464",
">+	c #F6B05F",
",+	c #F69D39",
"'+	c #FFC35E",
")+	c #F3F0ED",
"!+	c #05051B",
"~+	c #1C2C35",
"{+	c #F5A345",
"]+	c #FDF1E3",
"^+	c #F6B263",
"/+	c #FCE4C8",
"(+	c #F49E3B",
"_+	c #FBAF58",
":+	c #FFBC60",
"<+	c #EDEBE9",
"[+	c #000018",
"}+	c #24333C",
"|+	c #F49F3C",
"1+	c #FFFCF9",
"2+	c #3B3B3B",
"3+	c #F8C387",
"4+	c #F5A74C",
"5+	c #FAD6AD",
"6+	c #FFC145",
"7+	c #EFEAE4",
"8+	c #313140",
"9+	c #E1E3E4",
"0+	c #F8C284",
"a+	c #FBD8B1",
"b+	c #FDF1E2",
"c+	c #FEF6ED",
"d+	c #FFB13E",
"e+	c #EBDBC3",
"f+	c #A4A4AC",
"g+	c #000B1B",
"h+	c #616C72",
"i+	c #FAD2A4",
"j+	c #FBDBB6",
"k+	c #F5AB5F",
"l+	c #FFD661",
"m+	c #32323F",
"n+	c #00111D",
"o+	c #626C73",
"p+	c #F1F2F3",
"q+	c #E9EAEB",
"r+	c #34424A",
"s+	c #8B8B95",
"t+	c #F8C080",
"u+	c #FCE2C5",
"v+	c #F7B569",
"w+	c #F9D2A4",
"x+	c #FDA23B",
"y+	c #FFE0AE",
"z+	c #F9F8F7",
"A+	c #222237",
"B+	c #00101C",
"C+	c #2A3841",
"D+	c #2A3B42",
"E+	c #000E1C",
"F+	c #000118",
"G+	c #666671",
"H+	c #FFDB99",
"I+	c #F29C39",
"J+	c #FAD4A8",
"K+	c #F49D3A",
"L+	c #FCE0C0",
"M+	c #F6AF5E",
"N+	c #FFB63E",
"O+	c #F9E9CC",
"P+	c #CBCBCF",
"Q+	c #000B1C",
"R+	c #030C1C",
"S+	c #040419",
"T+	c #000014",
"U+	c #222736",
"V+	c #B0B2B7",
"W+	c #FFD595",
"X+	c #F69E39",
"Y+	c #FBE1C4",
"Z+	c #FFE1AA",
"`+	c #DBCEAE",
" @	c #484859",
".@	c #000017",
"+@	c #CEC9C6",
"@@	c #FEFCFB",
"#@	c #FFEFD5",
"$@	c #FFC15C",
"%@	c #F9A03A",
"&@	c #F19A38",
"*@	c #F8BD79",
"=@	c #F8BD7A",
"-@	c #A1A1A1",
";@	c #F6F5F3",
">@	c #151523",
",@	c #454556",
"'@	c #F3ECDC",
")@	c #FFDC57",
"!@	c #FFCA65",
"~@	c #FFBB4F",
"{@	c #FEA43B",
"]@	c #F5B061",
"^@	c #FAD7AF",
"/@	c #FEF4E9",
"(@	c #F9CC98",
"_@	c #FCE4C9",
":@	c #101010",
"<@	c #FAEBD3",
"[@	c #FFC27C",
"}@	c #F2A045",
"|@	c #F8C487",
"1@	c #CDCDCD",
"2@	c #FFCB7A",
"3@	c #FFE5AF",
"4@	c #FACE9E",
"5@	c #FEF3E8",
"6@	c #F8BF7E",
"7@	c #C8C8C8",
"8@	c #1D1D1D",
"9@	c #FCE7CF",
"0@	c #F8BF7D",
"a@	c #FAD4A9",
"b@	c #828282",
"                      . + @ # $ $ # @ + .                       ",
"                  % & * = - ; > > ; - , ' ) !                   ",
"              ~ { ] ^ / / / / / / / / / / ^ ( _ :               ",
"            ~ < / / [ } / / / / / | 1 / / / / 2 3 :             ",
"          4 5 / / / 6 6 / 7 8 / / 9 0 / / / / / / 5 a           ",
"        b c / / / d e f g e f / h e i / / / / / / / j k         ",
"      l m / / / / n e o / p q / r s / t u / / / / / / m l       ",
"    : v / / / / / w x y z A / / o B / C D / / E F / / / G :     ",
"    # / / H I q / J / K e L M N O P / Q R / o e S / M T U #     ",
"  ~ V / / W e / X e Y Z `  ...+.@.#.$.%./ / &.e Y / *.e =.-.~   ",
"  ;./ / q e >./ ,.1 '.).!.~.{.]./ ^./.(._.:.<.6 / / H [.}./ ;.  ",
": v / / |.e [ / 1.2.3.4./ 5.6.7.8.9.0.a.b.c.e d./ [.e./ / / v : ",
"f.g./ / h.i./ j.k.l.m./ n.0.o.p.p.q.r.s./ t.k.u./ v.e y / / g.w.",
"x.; / y.z./ / A.B.C./ D.E.F.G./ / H.I.J./ K.L.M./ e N./ / / ; x.",
"O.P./ 1 Q./ R.S.T.U.V.0.W./ / / / / X.Y./ / Z.`.*.e H / / /  +.+",
"++> / @+#+/ =.L.$+%+&+o.*+/ / / / / / / / / =+e e -+/ / / / > ;+",
";+> / / / / >+,+'+)+!+~+/ / / / / / / / / / g {+e j.]+^+x / > ++",
".+ +/ / / /+(+_+:+<+[+}+/ / / / / / / / / / q `.|+1+n e i./ P.O.",
"2+; / / / 3+4+5+6+7+8+o.9+/ / / / / / / / / H e 0+/ a+| 1+/ ; x.",
"w.g./ / / b+c+]+d+e+f+g+h+/ / / / / / / / / i+e [./ / / / / g.w.",
": v / / j+U / / k+l+/ m+n+o+p+/ / q+r+s+/ / T 4+/ t+*./ / / v : ",
"  ;./ u+e v+/ / w+x+y+z+A+B+q.C+D+E+F+G+/ H+I+&.Y e >./ / / &   ",
"  ~ -.J+K+L+/ / M+B.N+O+P+Q+R+S+T+U+V+/ W+X+e u.t+e B / / V ~   ",
"    # / / / / L+e Y+Z+`+ @.@+@/ )+@@#@$@%@&@*@=+(+=@/ / / #     ",
"    : -@/ / / } W }./ ;@>@,@'@)@!@~@{@]@^@e E /@(@_@/ / v :     ",
"      :@m / / / / / / / z+/ <@[@}@L.} / |@e }./ / / / 1@l       ",
"        k c / / / / / 2@3@/ / q k.W / / f K / / / / c b         ",
"          4 5 / / / /+k.4@/ / 5@6@p / / / / / / / 7@8@          ",
"            ~ 3 2 / 9@0@g / / >+a@/ / / / / / / < ~             ",
"              : { ( ^ / / / / 0@f / / / / ^ ] { ~               ",
"                  ! ) ' , - ; > > ; - = b@;.%                   ",
"                      . + @ # $ $ # @ + .                       "};
