/* XPM */
static char * C:\Users\Home\Desktop\pixmaps\bitcoin16_xpm[] = {
"16 16 98 2",
"  	c None",
". 	c #CC932B",
"+ 	c #DA9A2D",
"@ 	c #5C4714",
"# 	c #3E260B",
"$ 	c #634013",
"% 	c #D2A02E",
"& 	c #FFCB3B",
"* 	c #FFBD37",
"= 	c #F4B634",
"- 	c #654414",
"; 	c #000000",
"> 	c #0A0602",
", 	c #7C5418",
"' 	c #DF992C",
") 	c #FFA730",
"! 	c #FF9A2D",
"~ 	c #ECB034",
"{ 	c #917121",
"] 	c #7F5619",
"^ 	c #633A10",
"/ 	c #9A691E",
"( 	c #FFC138",
"_ 	c #FFD43E",
": 	c #B38326",
"< 	c #040000",
"[ 	c #775C1B",
"} 	c #060401",
"| 	c #5E3F12",
"1 	c #745418",
"2 	c #604815",
"3 	c #7C5A1A",
"4 	c #0A0702",
"5 	c #180B03",
"6 	c #664514",
"7 	c #775A1B",
"8 	c #C7982C",
"9 	c #FFE943",
"0 	c #E0A830",
"a 	c #170C04",
"b 	c #32290C",
"c 	c #CD9F2F",
"d 	c #FFE844",
"e 	c #DBA22F",
"f 	c #5A3910",
"g 	c #523710",
"h 	c #B08627",
"i 	c #8C6D1F",
"j 	c #745519",
"k 	c #46350F",
"l 	c #FFCA3B",
"m 	c #745318",
"n 	c #674013",
"o 	c #573E12",
"p 	c #F8C238",
"q 	c #C49D2D",
"r 	c #795C1B",
"s 	c #FFFF4B",
"t 	c #705719",
"u 	c #1F1105",
"v 	c #1E1908",
"w 	c #F5AD32",
"x 	c #F0A630",
"y 	c #724B16",
"z 	c #705519",
"A 	c #FFBE37",
"B 	c #E6A730",
"C 	c #473910",
"D 	c #251205",
"E 	c #231406",
"F 	c #311B08",
"G 	c #946A1F",
"H 	c #BF8A28",
"I 	c #45330F",
"J 	c #7D5E1B",
"K 	c #49340F",
"L 	c #906C20",
"M 	c #FFC73A",
"N 	c #FFC83A",
"O 	c #E0AB32",
"P 	c #2F1E09",
"Q 	c #211406",
"R 	c #E9AD33",
"S 	c #FFAC33",
"T 	c #FC922B",
"U 	c #FDB735",
"V 	c #967B24",
"W 	c #543610",
"X 	c #1C1005",
"Y 	c #3C280C",
"Z 	c #A47B24",
"` 	c #FFD33E",
" .	c #DFA731",
"..	c #694414",
"+.	c #020000",
"@.	c #2E1D08",
"#.	c #8B621C",
"$.	c #9F6E20",
"        . + @   # $             ",
"      % & * = - ; ; ; > ,       ",
"      ' ) ! ~ {     ] ; ; ^     ",
"      / ( _ :           < ; [   ",
"    } | 1 2     3         4 5   ",
"  6 ; 7       8 9 0             ",
"  a b         c d e             ",
"f ; g     h i   j   k l m       ",
"n ; o     p q       r s t       ",
"  u v           w x             ",
"  y ; z         A B       C D   ",
"    E F G H I           J ; K   ",
"      L M N O         P ; Q     ",
"      R S T U V W X ; ; Y       ",
"      Z ` l  ...+.; @.          ",
"        #.$.                    "};
