/* XPM */
static char * C:\Users\Home\Desktop\pixmaps\bitcoin64_xpm[] = {
"64 64 498 2",
"  	c None",
". 	c #000000",
"+ 	c #2A1A08",
"@ 	c #5B3A11",
"# 	c #6F4615",
"$ 	c #603D12",
"% 	c #2F1E09",
"& 	c #010100",
"* 	c #5C3B11",
"= 	c #D58727",
"- 	c #FFA630",
"; 	c #FFAF33",
"> 	c #FFB535",
", 	c #FFB133",
"' 	c #FFA831",
") 	c #D98928",
"! 	c #EC952B",
"~ 	c #D08426",
"{ 	c #C47D24",
"] 	c #AD6D20",
"^ 	c #9D641D",
"/ 	c #98601C",
"( 	c #A3681E",
"_ 	c #BA7622",
": 	c #D08427",
"< 	c #DE8D29",
"[ 	c #0F0902",
"} 	c #C07823",
"| 	c #FFBC37",
"1 	c #FFB334",
"2 	c #FFA42F",
"3 	c #FDA12F",
"4 	c #FA9F2F",
"5 	c #FDA02F",
"6 	c #FFB234",
"7 	c #B97422",
"8 	c #935E1C",
"9 	c #1C1205",
"0 	c #583810",
"a 	c #915C1B",
"b 	c #DD8B29",
"c 	c #0E0802",
"d 	c #D78D29",
"e 	c #FFBE37",
"f 	c #FCA02E",
"g 	c #F79D2E",
"h 	c #F89E2E",
"i 	c #FCA02F",
"j 	c #FFBF38",
"k 	c #C78225",
"l 	c #201406",
"m 	c #332009",
"n 	c #865519",
"o 	c #DF8C29",
"p 	c #AE7221",
"q 	c #F99D2E",
"r 	c #F89D2E",
"s 	c #FA9E2E",
"t 	c #FFBF37",
"u 	c #97641D",
"v 	c #B57C24",
"w 	c #543510",
"x 	c #D68627",
"y 	c #4D340F",
"z 	c #FFB635",
"A 	c #FFA22F",
"B 	c #FFAB32",
"C 	c #120C03",
"D 	c #110A03",
"E 	c #5E3A11",
"F 	c #ED9A2D",
"G 	c #B17622",
"H 	c #FFBC36",
"I 	c #734915",
"J 	c #3F290C",
"K 	c #070401",
"L 	c #A1641D",
"M 	c #0D0802",
"N 	c #EF992D",
"O 	c #FFB134",
"P 	c #AE6F21",
"Q 	c #8D5A1A",
"R 	c #56340F",
"S 	c #FEA931",
"T 	c #34210A",
"U 	c #FFA430",
"V 	c #FFAA32",
"W 	c #CD8126",
"X 	c #131105",
"Y 	c #9A601C",
"Z 	c #2C1C08",
"` 	c #301F08",
" .	c #251807",
"..	c #0B0702",
"+.	c #251606",
"@.	c #E1932B",
"#.	c #4A2F0E",
"$.	c #FFAA31",
"%.	c #FFA32F",
"&.	c #D08527",
"*.	c #D48727",
"=.	c #A76A1F",
"-.	c #704815",
";.	c #322009",
">.	c #100903",
",.	c #D38A28",
"'.	c #2A1B08",
").	c #FDA22F",
"!.	c #FFA530",
"~.	c #A86D20",
"{.	c #D78728",
"].	c #754A16",
"^.	c #0E0902",
"/.	c #D48B28",
"(.	c #E9942B",
"_.	c #F99E2E",
":.	c #FFBA36",
"<.	c #724916",
"[.	c #F49C2E",
"}.	c #7D4F17",
"|.	c #060301",
"1.	c #190E05",
"2.	c #E3982C",
"3.	c #9C671E",
"4.	c #FFBB36",
"5.	c #F79C2E",
"6.	c #F5A02F",
"7.	c #1B1005",
"8.	c #E5922B",
"9.	c #442A0C",
"0.	c #321F09",
"a.	c #FFAC32",
"b.	c #140B03",
"c.	c #FFAB31",
"d.	c #FB9F2E",
"e.	c #825619",
"f.	c #855218",
"g.	c #644213",
"h.	c #583910",
"i.	c #93651D",
"j.	c #674113",
"k.	c #FFA931",
"l.	c #F79C2D",
"m.	c #FFC038",
"n.	c #BD7C24",
"o.	c #AA6D20",
"p.	c #AF7121",
"q.	c #BE8025",
"r.	c #FFB936",
"s.	c #6A4113",
"t.	c #FFB735",
"u.	c #FFB034",
"v.	c #AC7121",
"w.	c #211506",
"x.	c #F3A02E",
"y.	c #3C270B",
"z.	c #41290C",
"A.	c #301F09",
"B.	c #D88727",
"C.	c #FFB033",
"D.	c #E58F29",
"E.	c #633F12",
"F.	c #9B661E",
"G.	c #7A5017",
"H.	c #A2681F",
"I.	c #4C2F0E",
"J.	c #482D0D",
"K.	c #8F5B1A",
"L.	c #8C591A",
"M.	c #482E0D",
"N.	c #020100",
"O.	c #694514",
"P.	c #D88929",
"Q.	c #180F04",
"R.	c #DF8E29",
"S.	c #845419",
"T.	c #CA8025",
"U.	c #E6932B",
"V.	c #B87522",
"W.	c #5F3C12",
"X.	c #040301",
"Y.	c #2E1C08",
"Z.	c #764A16",
"`.	c #9F671E",
" +	c #5C3610",
".+	c #623C11",
"++	c #FFBD37",
"@+	c #D28527",
"#+	c #1E1205",
"$+	c #BA7C24",
"%+	c #3D270B",
"&+	c #855519",
"*+	c #BF7A23",
"=+	c #DD8D29",
"-+	c #D98A28",
";+	c #39260B",
">+	c #E8962C",
",+	c #5B3811",
"'+	c #FFBB37",
")+	c #FFAE32",
"!+	c #F99D2D",
"~+	c #F79E2E",
"{+	c #D89029",
"]+	c #0A0501",
"^+	c #885B1B",
"/+	c #B16D20",
"(+	c #C47E25",
"_+	c #623F13",
":+	c #0E0702",
"<+	c #E99C2E",
"[+	c #815619",
"}+	c #764C16",
"|+	c #DA902A",
"1+	c #6F4815",
"2+	c #FFAE33",
"3+	c #D88C29",
"4+	c #37240A",
"5+	c #513610",
"6+	c #96641D",
"7+	c #EC972C",
"8+	c #0C0802",
"9+	c #E08F29",
"0+	c #A0691F",
"a+	c #9C641D",
"b+	c #EB962C",
"c+	c #0C0702",
"d+	c #A96C20",
"e+	c #0A0602",
"f+	c #88571A",
"g+	c #FFB434",
"h+	c #BC7D24",
"i+	c #744A16",
"j+	c #402A0C",
"k+	c #FEA12F",
"l+	c #5C3E12",
"m+	c #4E320E",
"n+	c #754B16",
"o+	c #8C5B1A",
"p+	c #FFC339",
"q+	c #FFA631",
"r+	c #F89C2E",
"s+	c #FEA330",
"t+	c #FFC338",
"u+	c #AE7321",
"v+	c #D08526",
"w+	c #2E1D08",
"x+	c #8A5519",
"y+	c #A8681E",
"z+	c #4E320F",
"A+	c #A76B1F",
"B+	c #C37C24",
"C+	c #935D1B",
"D+	c #160E04",
"E+	c #AD6E20",
"F+	c #E08F2A",
"G+	c #C57E24",
"H+	c #4B2F0E",
"I+	c #3A250B",
"J+	c #C57D25",
"K+	c #BE7923",
"L+	c #97601C",
"M+	c #3F280B",
"N+	c #A1631D",
"O+	c #FFAD32",
"P+	c #58350F",
"Q+	c #B47321",
"R+	c #C57E25",
"S+	c #170D04",
"T+	c #E2932B",
"U+	c #FFC138",
"V+	c #FFAD33",
"W+	c #6B4212",
"X+	c #754E17",
"Y+	c #FFC43A",
"Z+	c #F7A730",
"`+	c #231406",
" @	c #AB6D20",
".@	c #CE8426",
"+@	c #8D5C1B",
"@@	c #FFC239",
"#@	c #EB9D2E",
"$@	c #0F0802",
"%@	c #080401",
"&@	c #E6972C",
"*@	c #7C5018",
"=@	c #AF7021",
"-@	c #C77E25",
";@	c #050301",
">@	c #E2912A",
",@	c #33240A",
"'@	c #151005",
")@	c #F29F2E",
"!@	c #875A1A",
"~@	c #BA7722",
"{@	c #100B03",
"]@	c #C08125",
"^@	c #160D04",
"/@	c #120E04",
"(@	c #F4A12F",
"_@	c #FFA731",
":@	c #774D16",
"<@	c #C98025",
"[@	c #241707",
"}@	c #835418",
"|@	c #5A3810",
"1@	c #FFC439",
"2@	c #8A5A1A",
"3@	c #AB7121",
"4@	c #F5A530",
"5@	c #1F1205",
"6@	c #DF8E2A",
"7@	c #734916",
"8@	c #6B4414",
"9@	c #F49B2D",
"0@	c #89571A",
"a@	c #1F1306",
"b@	c #1B1205",
"c@	c #E6952C",
"d@	c #5C3810",
"e@	c #3B260B",
"f@	c #0D0903",
"g@	c #2B1B08",
"h@	c #DA8B28",
"i@	c #FFA330",
"j@	c #CC8126",
"k@	c #36220A",
"l@	c #130C03",
"m@	c #945E1B",
"n@	c #E7932B",
"o@	c #EF992C",
"p@	c #B37221",
"q@	c #2B1C08",
"r@	c #845418",
"s@	c #080502",
"t@	c #643C12",
"u@	c #FFA531",
"v@	c #3F250A",
"w@	c #060401",
"x@	c #BF7A24",
"y@	c #99641D",
"z@	c #1C1005",
"A@	c #F6A430",
"B@	c #CF8C29",
"C@	c #49310E",
"D@	c #7A4F17",
"E@	c #FAA430",
"F@	c #231807",
"G@	c #D28A28",
"H@	c #80591A",
"I@	c #FCA430",
"J@	c #281C08",
"K@	c #6A4614",
"L@	c #1D1205",
"M@	c #A86B1F",
"N@	c #ED962C",
"O@	c #A1691F",
"P@	c #5A3A11",
"Q@	c #FC9F2E",
"R@	c #DF942B",
"S@	c #030100",
"T@	c #D7902A",
"U@	c #010000",
"V@	c #291A08",
"W@	c #513310",
"X@	c #452C0D",
"Y@	c #644013",
"Z@	c #DC8C29",
"`@	c #170F04",
" #	c #D58C29",
".#	c #D38E29",
"+#	c #F69D2E",
"@#	c #6C4614",
"##	c #50350F",
"$#	c #714815",
"%#	c #40270C",
"&#	c #251706",
"*#	c #DF8D29",
"=#	c #845218",
"-#	c #A06A1F",
";#	c #221606",
">#	c #D78C29",
",#	c #6E4614",
"'#	c #664113",
")#	c #2C1D09",
"!#	c #D08A28",
"~#	c #050200",
"{#	c #98611C",
"]#	c #6B4615",
"^#	c #B27121",
"/#	c #52340F",
"(#	c #935E1B",
"_#	c #AA6C20",
":#	c #955F1C",
"<#	c #51340F",
"[#	c #E99D2E",
"}#	c #211406",
"|#	c #E7972C",
"1#	c #120A03",
"2#	c #B17121",
"3#	c #6B4314",
"4#	c #ED942B",
"5#	c #FFB435",
"6#	c #E6912A",
"7#	c #553610",
"8#	c #EE9F2E",
"9#	c #291907",
"0#	c #B97A24",
"a#	c #684A16",
"b#	c #BE7823",
"c#	c #965C1B",
"d#	c #DE912A",
"e#	c #201306",
"f#	c #6D4815",
"g#	c #402B0D",
"h#	c #EBA831",
"i#	c #BC7B24",
"j#	c #B47121",
"k#	c #36210A",
"l#	c #C98727",
"m#	c #A97121",
"n#	c #764E17",
"o#	c #412A0C",
"p#	c #FAA22F",
"q#	c #643E12",
"r#	c #130A03",
"s#	c #E0962C",
"t#	c #EF9D2E",
"u#	c #B27722",
"v#	c #9B611D",
"w#	c #130C04",
"x#	c #C07E25",
"y#	c #603F12",
"z#	c #FA9F2E",
"A#	c #F19B2E",
"B#	c #070502",
"C#	c #E7912A",
"D#	c #89581A",
"E#	c #B07422",
"F#	c #97621C",
"G#	c #241606",
"H#	c #BC7823",
"I#	c #472D0D",
"J#	c #020200",
"K#	c #B67723",
"L#	c #FCA12F",
"M#	c #351F09",
"N#	c #4F310F",
"O#	c #311F09",
"P#	c #2E1D09",
"Q#	c #1A0F05",
"R#	c #D18626",
"S#	c #0E0A03",
"T#	c #4B2E0D",
"U#	c #F2A12E",
"V#	c #A76D20",
"W#	c #F49E2E",
"X#	c #EA962B",
"Y#	c #090602",
"Z#	c #9E621D",
"`#	c #704915",
" $	c #BE7E24",
".$	c #9D691F",
"+$	c #613D12",
"@$	c #EE992D",
"#$	c #4D320F",
"$$	c #4A300E",
"%$	c #583711",
"&$	c #D98828",
"*$	c #744D17",
"=$	c #B97923",
"-$	c #241706",
";$	c #7F5017",
">$	c #A96F21",
",$	c #FFC238",
"'$	c #FDA32F",
")$	c #DA8F2A",
"!$	c #030000",
"~$	c #3E270C",
"{$	c #0E0903",
"]$	c #A1621C",
"^$	c #FEA32F",
"/$	c #C17723",
"($	c #0F0903",
"_$	c #724815",
":$	c #7D5017",
"<$	c #805118",
"[$	c #885619",
"}$	c #E9952B",
"|$	c #F4992D",
"1$	c #422A0C",
"2$	c #C87F25",
"3$	c #FFA12F",
"4$	c #CD8326",
"5$	c #53340F",
"6$	c #150D04",
"7$	c #694314",
"8$	c #4C300E",
"9$	c #170F05",
"                                . . + @ # $ % & .                                                                               ",
"                              . * = - ; > , ' ) @ .       ! ~ { ] ^ / ( _ : <                                                   ",
"                          . [ } | 1 2 3 4 5 2 6 | 7 &     8 . . . . . . . . . 9 0 a b                                           ",
"                          c d e f g h h h h h g i j k .     l . . . . . . . . . . . . m n o                                     ",
"                        . p e q h h h h h h h h r s t u .   v . . . . . . . . . . . . . . . w x                                 ",
"                      . y z A r h h h h h h h h h r - B C     D . . . . . . . . . . . . . . . . E F                             ",
"                      . G z g h h h h h h h h h h h g H I     J . . . . . . . . . . . . . . . . . K L                           ",
"                      M N ' h h h h h h h h h h h h h O P .   Q . . . . . . . . . . . . . . . . . . . R S                       ",
"                      T U U h h h h h h h h h h h h h V W X   Y . Z `  .... . . . . . . . . . . . . . . +.@.                    ",
"                      #.$.%.h h h h h h h h h h h h h B &..               *.=.-.;.. . . . . . . . . . . . >.,.                  ",
"                      '.).!.h h h h h h h h h h h h r > ~..                       {.].^.. . . . . . . . . . c /.                ",
"                      . (.V h h h h h h h h h h h h _.:.<..                           [.}.|.. . . . . . . . . 1.2.              ",
"                      . 3.4.5.h h h h h h h h h h g B 6.7.                                8.9.. . . . . . . . . 0.              ",
"                  a.    b.B c.5.h h h h h h h h r d.e e..                                     f.. . . . . . . . . g.            ",
"                  h.i.  . j.| k.l.h h h h h h g f m.n..                                         o.. . . . . . . . . p.          ",
"                q.. . r.  . s.> t.3 g h h r 3 u.j 7 K .                                           v.. . . . . . . . w.x.        ",
"                y.. . z.    . A.B.6 | t.t.| C.D.E..                                                 F.. . . . . . . . G.        ",
"              H.. . . . I.      . J.K.Q Q L.M.. .               . . N.. .                             O.. . . . . . . . P.      ",
"              '.. . . . . Q.R.    . . . . . .               . w.S.T.U.V.W.X.                            Y.. . . . . & . Z.      ",
"            `.. . . . . . .  +                            . .+- ++C.$.> ++@+#+.                         $+. . %+&+*+=+-+-+      ",
"            ;+. . . . . . . >+                          . ,+'+)+!+~+h g d.| {+]+                          ^+/+                  ",
"          (+. . . . . . . _+                            :+<+, l.h h h h h s t [+.                                               ",
"          }+. . . . . . . |+                          . 1+r.s h h h h h h r 2+3+.                                               ",
"          4+. . . . . . 5+                            . 6+r.r h h h h h h h ' 7+8+                                              ",
"        9+K . . . . . . 0+                            . a+z h h h h h h h h ' b+c+                                              ",
"        d+. . . . . . e+(.                            . f+'+g h h h h h h g g+h+.                                               ",
"        i+. . . . . . j+                                A.a.' g h h h h g k+| l+.                                               ",
"        m+. . . . . . n+                                . o+p+q+r+h h g s+t+u+.         . . . .                                 ",
"      v+w+. . . . . . &+                    . . . .       . x+, | ; ; | > y+N.        . z+A+B+C+Z .                             ",
"      *+D+. . . . . . E+                . D+a F+G+H+.       . I+^ J+K+L+M+.         . N+e r.C.e O+P+.                           ",
"      Q+8+. . . . . . R+                S+T+U+V+t.H W+.         . . . .           . X+Y+%.g h r+6 Z+`+                          ",
"       @c+. . . . . . .@              . +@@@_.g l.C.#@$@                          %@&@O+g h h h r ++*@.                         ",
"      =@8+. . . . . . -@              ;@>@a.h h h %.$.,@                          '@)@- h h h h r 4.!@.                         ",
"      ~@{@. . . . . .  @              . ]@z 5.h g B 6.^@                          /@(@_@h h h h h '+:@.                         ",
"      <@[@. . . . . . }@              . |@j C.2 B 1@2@.                           . 3@j q ~+h r+6 4@5@                          ",
"      6@z.. . . . . . 7@                . 8@9@- g 0@.             . ;@a@b@N..       #+c@j a.' r.C.d@.                           ",
"        E.. . . . . . e@                  . f@g@M .             . H+h@U i@j@k@.     . l@m@n@o@p@q@.                             ",
"        r@. . . . . . s@U.                                    . t@:.> !.u@r.C.v@.       . X.w@.                                 ",
"        x@. . . . . . . y@                                    z@A@; l.h h l.t.B@.                                               ",
"          D . . . . . . C@                                  . D@| r h h h h !.E@F@                                              ",
"          @ . . . . . . . G@                                . H@e r h h h h U I@J@                        K@L@M@N@              ",
"          O@. . . . . . . P@                                . g.:.Q@h h h g C.R@S@                      T@U@. . ..V@W@X@Y@Z@    ",
"            `@. . . . . . .  #                                . .#++Q@+#s k.U+@#.                       ##. . . . . . . }.      ",
"            $#. . . . . . . %#                                . &#*#'+| :.a.=#.                       -#. . . . . . . ;#        ",
"            >#. . . . . . . ,#        . . . .                   . ..'#C+}.)#.                       !#~#. . . . . . . {#        ",
"              ]#. . . . . ^#    . K /#(#d+_#:#<#;@.                 . . .                         [#}#. . . . . . . T           ",
"              |#1#. . . 2#    . 3#4#1 :.1 1 r.5#6#7#.                                           8#9#. . . . . . . . 0#          ",
"                `.. . a#    . b#t 2+5 g h h g 5 6 | c#.                                       d#e#. . . . . . . . f#            ",
"                  g#. h#  . i#m.f g h h h h h h l.U j +@.                                   j#K . . . . . . . . k#              ",
"                  l#m#  . n#e d.r h h h h h h h h g q+6 o#                              p#q#. . . . . . . . . r#s#              ",
"                        . t#a.g h h h h h h h h h h 5.t.u#.                           v#w#. . . . . . . . . . x#                ",
"                      . y#t.z#h h h h h h h h h h h h ' A#B#                    C#D#l . . . . . . . . . . . E#                  ",
"                      . F#t.r h h h h h h h h h h h h %.' G#              H#L.I#J#. . . . . . . . . . . U@K#                    ",
"                      . <@2+h h h h h h h h h h h h h L#, M#    N#O#P#l c+. . . . . . . . . . . . . . Q#,.                      ",
"                      . R#a.h h h h h h h h h h h h h A B w.    S#. . . . . . . . . . . . . . . . . T#U#                        ",
"                      . V#> r h h h h h h h h h h h h - W#.   X#. . . . . . . . . . . . . . . . Y#Z#                            ",
"                      . `#:._.h h h h h h h h h h h g 6  $.   .$. . . . . . . . . . . . . . . +$@$                              ",
"                        ^@t#a.g h h h h h h h h h h 5 '+#$    $$. . . . . . . . . . . . . %$&$                                  ",
"                        . *$e 3 g h h h h h h h h r | =$.   2.. . . . . . . . . . . -$;$o                                       ",
"                          . >$,$'$5.h h h h h g i ++)$!$    ~$. . . . . . %@{$H+r@-@                                            ",
"                            . ]$r.t.q+^$i ^$!.g+++/$($.   B _$:$<$<$}.[$V.}$|$                                                  ",
"                              . 1$2$3$$.g+$.A 4$5$.                                                                             ",
"                                . . 6$$$7$8$9$U@.                                                                               ",
"                                      . . .                                                                                     "};
