/* XPM */
static char * C:\Users\Home\Pictures\Civ\real\New folder\new\bitcoin16_xpm[] = {
"16 16 165 2",
"  	c None",
". 	c #2E2E2E",
"+ 	c #5F5F5F",
"@ 	c #888888",
"# 	c #BABABA",
"$ 	c #5E5E5E",
"% 	c #2D2D2D",
"& 	c #444444",
"* 	c #A2A1A0",
"= 	c #E5D0B9",
"- 	c #FDEAD5",
"; 	c #FFFFFE",
"> 	c #FBDFBE",
", 	c #FBD7AF",
"' 	c #E6E6E6",
") 	c #A5A5A5",
"! 	c #474747",
"~ 	c #555555",
"{ 	c #D0D0D0",
"] 	c #FCE9D2",
"^ 	c #F8BF7E",
"/ 	c #FAD5AB",
"( 	c #FDEBD7",
"_ 	c #FAC281",
": 	c #FCCF9C",
"< 	c #FFFFFF",
"[ 	c #D2D2D2",
"} 	c #545454",
"| 	c #414141",
"1 	c #DDDDDD",
"2 	c #FBDFBF",
"3 	c #F9D0A0",
"4 	c #FDF0E2",
"5 	c #FFFBF7",
"6 	c #FEE2C2",
"7 	c #FDDFAE",
"8 	c #FEE2C0",
"9 	c #FEF9F3",
"0 	c #FDF0E0",
"a 	c #DDDCDB",
"b 	c #44413F",
"c 	c #B7B7B7",
"d 	c #FBDCB8",
"e 	c #FBD7AE",
"f 	c #FEF7EF",
"g 	c #FCCD96",
"h 	c #FFCC6A",
"i 	c #FFE5A9",
"j 	c #F0E5D4",
"k 	c #B1ABA6",
"l 	c #FCF2E6",
"m 	c #FFCD8F",
"n 	c #F9CC98",
"o 	c #B69B7D",
"p 	c #5D5D5D",
"q 	c #F3EFEB",
"r 	c #F8C589",
"s 	c #F9CE9F",
"t 	c #FEBA68",
"u 	c #F8C168",
"v 	c #BDA78E",
"w 	c #6B6255",
"x 	c #1A2230",
"y 	c #656771",
"z 	c #EDC78E",
"A 	c #FFC170",
"B 	c #FEF6EE",
"C 	c #FBDDBA",
"D 	c #F2E8DE",
"E 	c #989898",
"F 	c #FDEAD4",
"G 	c #FDDCBA",
"H 	c #FFBA47",
"I 	c #B5AD9E",
"J 	c #505059",
"K 	c #6D6D7A",
"L 	c #414153",
"M 	c #70767C",
"N 	c #F5DCAE",
"O 	c #FFD399",
"P 	c #F9CA97",
"Q 	c #F9CA93",
"R 	c #BEBEBE",
"S 	c #FCE6CD",
"T 	c #FFCB83",
"U 	c #E2B778",
"V 	c #646571",
"W 	c #898D96",
"X 	c #FEFEFE",
"Y 	c #F3F3F4",
"Z 	c #FFD07B",
"` 	c #F49E3C",
" .	c #FEF6ED",
"..	c #FDEEDD",
"+.	c #FFBB40",
"@.	c #C4A682",
"#.	c #4A4A57",
"$.	c #E6E8E9",
"%.	c #FFC47F",
"&.	c #F7B76B",
"*.	c #F7BA74",
"=.	c #F9CB95",
"-.	c #FDEAD6",
";.	c #FFCD87",
">.	c #E4C79C",
",.	c #4F505E",
"'.	c #A5A8AF",
").	c #FDFDFD",
"!.	c #FAFAFA",
"~.	c #FFCB7C",
"{.	c #FBD9B3",
"].	c #F9CD9B",
"^.	c #EECDA6",
"/.	c #F7B972",
"(.	c #FFFDFB",
"_.	c #FFD479",
":.	c #C7B08C",
"<.	c #313144",
"[.	c #686976",
"}.	c #575764",
"|.	c #8B8B93",
"1.	c #EBE1D0",
"2.	c #FFC564",
"3.	c #F9C78F",
"4.	c #F9C78D",
"5.	c #F3F3F3",
"6.	c #B6A086",
"7.	c #F8C080",
"8.	c #FDEFDF",
"9.	c #FFBB58",
"0.	c #EAD6AE",
"a.	c #4F4F5B",
"b.	c #4F4E3C",
"c.	c #938773",
"d.	c #DABE8F",
"e.	c #FFC140",
"f.	c #F7B872",
"g.	c #F5A850",
"h.	c #FAD7AD",
"i.	c #434343",
"j.	c #DCDCDC",
"k.	c #FFF1DF",
"l.	c #FBF8F2",
"m.	c #B0AFAF",
"n.	c #F1E5C2",
"o.	c #FFDB69",
"p.	c #FED291",
"q.	c #F5AB5D",
"r.	c #FAD7AE",
"s.	c #DCD5CC",
"t.	c #D3D3D3",
"u.	c #FDD39A",
"v.	c #FEEED4",
"w.	c #FEEEDD",
"x.	c #FABC7D",
"y.	c #FFFDFC",
"z.	c #FFFCFA",
"A.	c #D1D1D1",
"B.	c #565656",
"C.	c #A6A6A6",
"D.	c #E4CEB4",
"E.	c #FCDEBD",
"F.	c #FBE1C2",
"G.	c #E8E8E8",
"H.	c #A2A2A2",
"        . + @ # # @ $ %         ",
"      & * = - ; > , ' ) !       ",
"    ~ { ] ^ / ( _ : < < [ }     ",
"  | 1 < 2 3 4 5 6 7 8 9 0 a b   ",
"  c d e f g h i j k l m 2 n o   ",
"p q r s t u v w x y z A B C D p ",
"E F F G H I J K L M N O P Q < E ",
"R , S T U V W < X Y < Z `  .< R ",
"R < ..+.@.#.$.< < < < %.&.*.=.R ",
"E < -.;.>.,.'.< ).!.< ~.{.].2 E ",
"p ^./.(._.:.<.[.}.|.1.2.3.4.5.p ",
"  6.7.8.9.0.a.b.c.d.e.f.g.h.c   ",
"  i.j.8.k.l.m.n.o.p.q.r./ s.|   ",
"    } t.< u.v.w.x.y...z.A.B.    ",
"      ! C.D.(.E.F.< G.H.&       ",
"        % $ @ # # @ + .         "};
