/* XPM */
static char * C:\Users\Home\Pictures\Civ\real\New folder\new\bitcoin64_xpm[] = {
"64 64 512 2",
"  	c None",
". 	c #454545",
"+ 	c #343434",
"@ 	c #242424",
"# 	c #0F0F0F",
"$ 	c #000000",
"% 	c #2D2D2D",
"& 	c #0B0B0B",
"* 	c #080808",
"= 	c #090909",
"- 	c #2F2F2F",
"; 	c #555555",
"> 	c #6E6E6E",
", 	c #909090",
"' 	c #9D9D9D",
") 	c #9E9E9E",
"! 	c #6D6D6D",
"~ 	c #545454",
"{ 	c #353535",
"] 	c #0E0E0E",
"^ 	c #5B5B5B",
"/ 	c #9F9F9F",
"( 	c #D1D1D1",
"_ 	c #F6F6F6",
": 	c #FFFFFF",
"< 	c #F7F7F7",
"[ 	c #A0A0A0",
"} 	c #5C5C5C",
"| 	c #535353",
"1 	c #B2B2B2",
"2 	c #F3F3F3",
"3 	c #EFEFEF",
"4 	c #B8B8B8",
"5 	c #363636",
"6 	c #3A3A3A",
"7 	c #020202",
"8 	c #6A6A6A",
"9 	c #D4D4D4",
"0 	c #D3D3D3",
"a 	c #686868",
"b 	c #1D1D1D",
"c 	c #4D4D4D",
"d 	c #D7D7D7",
"e 	c #4C4C4C",
"f 	c #1E1E1E",
"g 	c #2E2E2E",
"h 	c #111111",
"i 	c #BBBBBB",
"j 	c #F9C992",
"k 	c #F7B76E",
"l 	c #FCE8D0",
"m 	c #3E3E3E",
"n 	c #5D5D5D",
"o 	c #ECECEC",
"p 	c #FAD2A4",
"q 	c #F9C58B",
"r 	c #FEFAF4",
"s 	c #FDF1E3",
"t 	c #F49D39",
"u 	c #F8BD7A",
"v 	c #3F3F3F",
"w 	c #252525",
"x 	c #8C8C8C",
"y 	c #F9C890",
"z 	c #FEF2E5",
"A 	c #F9CC97",
"B 	c #FDEFDF",
"C 	c #F9CC98",
"D 	c #F8C589",
"E 	c #8D8D8D",
"F 	c #262626",
"G 	c #222222",
"H 	c #A7A7A7",
"I 	c #F8BF7E",
"J 	c #FACE9C",
"K 	c #FFFFFE",
"L 	c #F6AD59",
"M 	c #F6AB55",
"N 	c #F5A74C",
"O 	c #FDF1E2",
"P 	c #272727",
"Q 	c #BFBFBF",
"R 	c #FEF8F1",
"S 	c #F4A03E",
"T 	c #FCE1C2",
"U 	c #F5AA53",
"V 	c #FCE0C1",
"W 	c #F7B56A",
"X 	c #3D3D3D",
"Y 	c #ACACAC",
"Z 	c #FAD4A8",
"` 	c #FCE1C3",
" .	c #FBDAB4",
"..	c #FBDEBC",
"+.	c #3B3B3B",
"@.	c #303030",
"#.	c #808080",
"$.	c #F6AE5A",
"%.	c #FDE9D3",
"&.	c #FBDCB8",
"*.	c #FAD7AD",
"=.	c #FDECD9",
"-.	c #F5A345",
";.	c #FFFDFC",
">.	c #FEFAF6",
",.	c #FDEBD7",
"'.	c #494949",
").	c #FCE4C9",
"!.	c #F6AC57",
"~.	c #FDECD8",
"{.	c #F9CE9C",
"].	c #F6AF5D",
"^.	c #F9CD9B",
"/.	c #191919",
"(.	c #050505",
"_.	c #FBD9B3",
":.	c #FBD9B2",
"<.	c #F9CA93",
"[.	c #FFFBF6",
"}.	c #FCE2C4",
"|.	c #FAD2A6",
"1.	c #FBDBB7",
"2.	c #F6B161",
"3.	c #FEF9F3",
"4.	c #C1C1C1",
"5.	c #FBDFBE",
"6.	c #FAD4A9",
"7.	c #FDEDDB",
"8.	c #F9C78E",
"9.	c #FFCB8E",
"0.	c #F29B39",
"a.	c #FCE3C6",
"b.	c #F5A244",
"c.	c #F7B972",
"d.	c #C4C4C4",
"e.	c #FEF8F0",
"f.	c #F9C78D",
"g.	c #FFF4E6",
"h.	c #FFCB75",
"i.	c #FFC786",
"j.	c #F6AB56",
"k.	c #F8BE7C",
"l.	c #F8C386",
"m.	c #414141",
"n.	c #E9E9E9",
"o.	c #F4A040",
"p.	c #F7BC78",
"q.	c #FFFCF8",
"r.	c #FFFEFD",
"s.	c #F7BC77",
"t.	c #F6B364",
"u.	c #FFFDFA",
"v.	c #F5A447",
"w.	c #F5A850",
"x.	c #FEF3E7",
"y.	c #FBDDBA",
"z.	c #F8C080",
"A.	c #F7BB75",
"B.	c #F7C080",
"C.	c #FFDDA9",
"D.	c #FDEAD4",
"E.	c #F6AD5A",
"F.	c #2C2C2C",
"G.	c #6B6B6B",
"H.	c #F5A64C",
"I.	c #FDF0E1",
"J.	c #FBDDBB",
"K.	c #F8C385",
"L.	c #FBDFBF",
"M.	c #F6AC58",
"N.	c #F49F3C",
"O.	c #F39C39",
"P.	c #F39D39",
"Q.	c #F49C39",
"R.	c #FFDA94",
"S.	c #7D7D87",
"T.	c #38484F",
"U.	c #ADADB5",
"V.	c #F8C283",
"W.	c #FAD3A6",
"X.	c #FEFAF5",
"Y.	c #F5A64B",
"Z.	c #FACF9F",
"`.	c #6F6F6F",
" +	c #FCE5CA",
".+	c #F7B66B",
"++	c #F29938",
"@+	c #FB9F3A",
"#+	c #FFA73B",
"$+	c #FFB445",
"%+	c #0F1627",
"&+	c #00101C",
"*+	c #00111C",
"=+	c #343E4A",
"-+	c #FAFAFA",
";+	c #F4A03F",
">+	c #FEF7EE",
",+	c #F6B060",
"'+	c #FEF7EF",
")+	c #EAEAEA",
"!+	c #474747",
"~+	c #F8BD79",
"{+	c #FBD7AF",
"]+	c #FDF0E0",
"^+	c #FA9E39",
"/+	c #FFBC5C",
"(+	c #FFDE91",
"_+	c #FFE2B9",
":+	c #FAE6D2",
"<+	c #FCECD8",
"[+	c #FDF3E1",
"}+	c #ABABB3",
"|+	c #00131C",
"1+	c #484859",
"2+	c #FDFDFD",
"3+	c #FCF0DD",
"4+	c #FEECD8",
"5+	c #FDEEDC",
"6+	c #0A0A0A",
"7+	c #F49F3D",
"8+	c #F5A242",
"9+	c #FAD1A3",
"0+	c #F5A446",
"a+	c #FFC977",
"b+	c #FFEAC9",
"c+	c #3F4A53",
"d+	c #000C1B",
"e+	c #CFD0D4",
"f+	c #FFCE75",
"g+	c #F09938",
"h+	c #FDEBD6",
"i+	c #F7BA74",
"j+	c #C0C0C0",
"k+	c #F8C58A",
"l+	c #F6AE5B",
"m+	c #F5A549",
"n+	c #F29A38",
"o+	c #FFB14E",
"p+	c #FFE7C3",
"q+	c #B4B4BA",
"r+	c #757582",
"s+	c #525864",
"t+	c #494D5C",
"u+	c #4A4E5C",
"v+	c #646774",
"w+	c #757B84",
"x+	c #01121D",
"y+	c #343648",
"z+	c #FFF4E4",
"A+	c #FDA13A",
"B+	c #F49F3E",
"C+	c #F5A951",
"D+	c #282828",
"E+	c #565656",
"F+	c #F5A54A",
"G+	c #F29B38",
"H+	c #FFBC63",
"I+	c #FFF8ED",
"J+	c #FBFBFB",
"K+	c #7D7D89",
"L+	c #182531",
"M+	c #B0B1B8",
"N+	c #FFF2E3",
"O+	c #FEB357",
"P+	c #F29C39",
"Q+	c #F49E3B",
"R+	c #F9C891",
"S+	c #FFBE65",
"T+	c #FFFEFC",
"U+	c #BDBDC3",
"V+	c #222C39",
"W+	c #4B565F",
"X+	c #C9C9CE",
"Y+	c #FEFBF6",
"Z+	c #FBB15A",
"`+	c #F49D3A",
" @	c #030303",
".@	c #FEF3E6",
"+@	c #FDB050",
"@@	c #FFFBF7",
"#@	c #A5A5AD",
"$@	c #000F1C",
"%@	c #0B1A26",
"&@	c #2A3741",
"*@	c #2C3943",
"=@	c #0E1D28",
"-@	c #8D9099",
";@	c #FFF8F0",
">@	c #F5A448",
",@	c #FAD6AC",
"'@	c #F9CC99",
")@	c #F9CA95",
"!@	c #D6D6D6",
"~@	c #3C3C3C",
"{@	c #0C0C0C",
"]@	c #FA9F39",
"^@	c #FFEFD7",
"/@	c #C1C1C6",
"(@	c #4C5760",
"_@	c #ABB0B4",
":@	c #E5E7E8",
"<@	c #E9EAEB",
"[@	c #ADB2B6",
"}@	c #4D5861",
"|@	c #182631",
"1@	c #F5F5F6",
"2@	c #F5A84F",
"3@	c #212121",
"4@	c #FEF3E8",
"5@	c #FFD084",
"6@	c #F3F3F4",
"7@	c #101C29",
"8@	c #1B2934",
"9@	c #B7BCBF",
"0@	c #B2B7BA",
"a@	c #636D74",
"b@	c #F7B467",
"c@	c #5A5A5A",
"d@	c #F7BB76",
"e@	c #FAD0A1",
"f@	c #F4A142",
"g@	c #F99F3A",
"h@	c #FFF7EA",
"i@	c #6B6B78",
"j@	c #E4E6E7",
"k@	c #C9CCCF",
"l@	c #D9DBDD",
"m@	c #FDEDDA",
"n@	c #F8C284",
"o@	c #FBD8B1",
"p@	c #0D0D0D",
"q@	c #FFC771",
"r@	c #EFEFF1",
"s@	c #010D1D",
"t@	c #D4D7D9",
"u@	c #707070",
"v@	c #FEE4B1",
"w@	c #93939C",
"x@	c #00121C",
"y@	c #707980",
"z@	c #FAD2A3",
"A@	c #F8C182",
"B@	c #FEA53B",
"C@	c #FBECDB",
"D@	c #4D525F",
"E@	c #03131F",
"F@	c #E2E4E5",
"G@	c #FCE7CE",
"H@	c #FCE6CD",
"I@	c #FFAA44",
"J@	c #272A3D",
"K@	c #323F49",
"L@	c #FAD5AA",
"M@	c #FFBB57",
"N@	c #F9F9FA",
"O@	c #0F1A28",
"P@	c #525D65",
"Q@	c #8F8F8F",
"R@	c #FFBB59",
"S@	c #F0F0F1",
"T@	c #061320",
"U@	c #556068",
"V@	c #F7B366",
"W@	c #FAD6AD",
"X@	c #FFAC4A",
"Y@	c #16192E",
"Z@	c #455159",
"`@	c #FFA93B",
" #	c #FDF4EB",
".#	c #323848",
"+#	c #13222D",
"@#	c #F8F8F9",
"##	c #FBDEBB",
"$#	c #FEF5EB",
"%#	c #FBDCB9",
"&#	c #FEF8F2",
"*#	c #F8A13A",
"=#	c #FBE6C6",
"-#	c #626471",
";#	c #ACB1B5",
">#	c #FFFCF9",
",#	c #FFFDFB",
"'#	c #FCE9D2",
")#	c #FEF6ED",
"!#	c #F19B39",
"~#	c #FFD88F",
"{#	c #BFBFC4",
"]#	c #293640",
"^#	c #F8C387",
"/#	c #FEAE4C",
"(#	c #25293A",
"_#	c #6D767D",
":#	c #F6F7F7",
"<#	c #F4A141",
"[#	c #FCE2C5",
"}#	c #FFE6B7",
"|#	c #BBBBC0",
"1#	c #00131D",
"2#	c #6F787F",
"3#	c #F0F1F2",
"4#	c #38444E",
"5#	c #868E93",
"6#	c #FAD0A0",
"7#	c #F6AA54",
"8#	c #FEF5EC",
"9#	c #FCE6CC",
"0#	c #F5A952",
"a#	c #FBAC4B",
"b#	c #70707D",
"c#	c #00121D",
"d#	c #313E48",
"e#	c #A7ADB1",
"f#	c #F7F8F8",
"g#	c #F4F5F5",
"h#	c #9FA5AA",
"i#	c #202E38",
"j#	c #2E3B45",
"k#	c #FAD09F",
"l#	c #F8BE7D",
"m#	c #FFD186",
"n#	c #595967",
"o#	c #1A2833",
"p#	c #6C757C",
"q#	c #162530",
"r#	c #A8ADB2",
"s#	c #FEF4E9",
"t#	c #F59B39",
"u#	c #FFDBA8",
"v#	c #737880",
"w#	c #051520",
"x#	c #000D1C",
"y#	c #A1A1A9",
"z#	c #FFD39D",
"A#	c #484848",
"B#	c #F9CD99",
"C#	c #F7B468",
"D#	c #F39A38",
"E#	c #FFDEA4",
"F#	c #797C87",
"G#	c #CACACF",
"H#	c #FFD39F",
"I#	c #F59D39",
"J#	c #FEF5EA",
"K#	c #FCE7CF",
"L#	c #F7B76D",
"M#	c #FFA63B",
"N#	c #3C4150",
"O#	c #2F3845",
"P#	c #101428",
"Q#	c #00061A",
"R#	c #070D20",
"S#	c #2B2B3F",
"T#	c #646471",
"U#	c #BCBCC2",
"V#	c #FFCD87",
"W#	c #FFFCFA",
"X#	c #FCE4C8",
"Y#	c #F7B569",
"Z#	c #FCE5CB",
"`#	c #FFD47D",
" $	c #B9B9BF",
".$	c #49525C",
"+$	c #DEDEE0",
"@$	c #DCDCDE",
"#$	c #ECECED",
"$$	c #FFE4BB",
"%$	c #FBAB54",
"&$	c #FBD9B1",
"*$	c #FCC992",
"=$	c #FFF1D2",
"-$	c #FEFDFD",
";$	c #313144",
">$	c #000B1B",
",$	c #C0C2C6",
"'$	c #FFF2DA",
")$	c #FFDAA4",
"!$	c #FCB05B",
"~$	c #F5A243",
"{$	c #F7B870",
"]$	c #C4C4CA",
"^$	c #000C1C",
"/$	c #2D2F42",
"($	c #FFC471",
"_$	c #FFBD6E",
":$	c #FFC175",
"<$	c #FFBC6A",
"[$	c #FCAD50",
"}$	c #F39B39",
"|$	c #F6AE5C",
"1$	c #FDEFDE",
"2$	c #9EA1A8",
"3$	c #303E47",
"4$	c #9FA0A8",
"5$	c #FED99F",
"6$	c #F6B264",
"7$	c #4B4B4B",
"8$	c #BDBEC3",
"9$	c #FFBF6E",
"0$	c #F39D3B",
"a$	c #FDE9D4",
"b$	c #FFF9F3",
"c$	c #FBDAB5",
"d$	c #7F7F7F",
"e$	c #ABABAB",
"f$	c #FFEACF",
"g$	c #FFF9F2",
"h$	c #FEF6EC",
"i$	c #A5A5A5",
"j$	c #EBEBEB",
"k$	c #F7B66C",
"l$	c #FBDBB6",
"m$	c #F6B263",
"                                                  . + @ # $ $ $ $ $ $ # @ + .                                                   ",
"                                            % & $ * = - ; > , ' ) , ! ~ - = = $ & %                                             ",
"                                      { ] $ ] ^ / ( _ : : : : : : : : : : < ( [ } & $ ] {                                       ",
"                                  { $ $ | 1 2 : : : : : : : : : : : : : : : : : : 3 4 | $ $ 5                                   ",
"                              6 $ 7 8 9 : : : : : : : : : : : : : : : : : : : : : : : : 0 a 7 $ 6                               ",
"                            b $ c d : : : : : : : : : : : : : : : : : : : : : : : : : : : : d e $ f                             ",
"                        g $ h i : : : : : : : : : : : : : : : : : : : j k l : : : : : : : : : : 4 h $ -                         ",
"                      m $ n o : : : : : : p q r : : : : : : : : : : s t t u : : : : : : : : : : : o ^ $ v                       ",
"                    w $ x : : : : : : : l t t y : : z A B : : : : : C t t D : : : : : : : : : : : : : E $ F                     ",
"                  G $ H : : : : : : : : I t t J : K L t M K : : : : N t t O : : : : : : : : : : : : : : H $ G                   ",
"                P $ Q : : : : : : : : R S t S R : T t t U : : : : V t t W : : : : : : : : : : : : : : : : Q $ P                 ",
"              X $ Y : : : : : : : : : Z t t I : : ` t t  .: : : : k t t ..: : : : : : : : : : : : : : : : : Y $ +.              ",
"            @.$ #.: : : : : : : : : : $.t t %.: : : &.*.: : : : =.t t -.;.: : >.,.: : : : : : : : : : : : : : #.$ -             ",
"            $ '.: : : : : : : : : : ).t t !.: : : : : : : : : : ~.t t {.: : ;.].t ^.: : : : : : : : : : : : : : e $             ",
"          /.(._ : : : : : : : : : : ).t t _.: : :.<.[.: : : : : : }.|.K : : 1.t t 2.: : : : : 3.: : : : : : : : < (./.          ",
"        % $ 4.: : : : : : : : : : : : 5.6.: : 7.t t 8.: : : : : : : : : : : 9.0.t &.: : : : a.b.c.>.: : : : : : : d.$ %         ",
"        $ v : : : : : : e.: : : : : : : : : : f.t t C : : : : : : : : : : : g.h.i.: : : : : j.t t 7.: : : [.k.l.z : m.$         ",
"      g $ n.: : : : : ..o.p.q.: : r.s.t.B : u.v.t w.r.x.y.A z.A.A.B.C.: : : : : : : : : : D.t t E.u.: : : ^.t t I : n.$ F.      ",
"      $ G.: : : : : : H.t t I.: : J.t t K.: L.t t M.k.N.t t t O.P.Q.R.: S.T.U.: : : : : : V.t t W.: : : X.Y.t t Z.: : `.$       ",
"    g $ n.: : : : :  +t t ].;.: : W t t V : .+t t t t t ++@+#+#+#+$+r.: %+&+*+=+-+: : : r ;+t N.>+: : : z t t ,+'+: : )+$ g     ",
"    = !+: : : : : : ~+t t {+: : x.t t Y.: ]+t t t O.^+/+(+_+:+I.<+[+: }+*+&+|+1+2+3+4+: *.t t ~+: : : : : p c.5+: : : : !+6+    ",
"    $ 4.: : : : : '+7+t 8+q.: : 9+t t &.x.0+t O.^+a+b+: : : : : : : : c+*+&+d+e+: f+g+h+i+t t  +: : : : : : : : : : : : j+$     ",
"  P & -+: : : : : Z.t t k+: : : l+t N  .m+t n+o+p+: : : q+r+s+t+u+v+w+x+&+*+y+: z+A+Q.t B+t C+: : : : : B : : : : : : : -+& D+  ",
"  * E+: : : : : : !.t t =.: : 7.t t F+S t G+H+I+: J+K+L+*+&+&+&+&+&+&+&+&+&+M+: N+O+P+t t t 9+: : : : z.t 8.: : : : : : : E+=   ",
"  $ 1 : : : : : : 9+Q+u : : : R+t t t t G+S+T+: U+V+*+&+&+&+&+&+&+&+&+&+&+&+W+X+: Y+Z+t t `+'+: : : O t t N : : : : : : : 1 $   ",
"X  @d : : : : : : : .@: : : ;.Y.t t t 0.+@@@: #@$@*+&+&+&+&+%@&@*@=@&+&+&+&+*+-@: : ;@>@t `+,@: : : '@t t )@: : : : : : : !@ @~@",
"- {@-+: : : : : : : : : : : a.t t t t ]@^@: /@&+*+&+&+&+(@_@:@: : <@[@}@&+&+|@1@: : : ).t t B+3.: : 2@t t s : : : : : : : -+& - ",
"3@- : : : : : : 4@: : : : : z.t t t 0.5@: 6@7@*+&+&+8@9@: : : : : : : : 0@&+a@: : : : : c.t t ^.: a.t t b@: : : : : : : : : @.3@",
"] c@: : : : : d@N.e@: : : X.f@t t t g@h@: i@|+&+&+8@j@: : : : : : : : : : k@l@: : : : : m@t t U : n@t t o@: : : : : : : : : } p@",
"$ > : : : : : t t w.: : : &.t t t O.q@: r@s@&+&+&+t@: : : : : : : : : : : : : : : : : : : 2.t N. +j.t f@>.: : : : : : : : : u@$ ",
"$ , : : : : : 9+W ).: : : .+t t t O.v@: w@x@&+&+y@: : : : : : : : : : : : : : : : : : : : z@t `+N t t A@: : : : : : : : : : , $ ",
"$ ) : : : : : : : : : : z t t t t B@C@: D@&+&+E@F@: : : : : : : : : : : : : : : : : : : : G@t t t t t H@: : : : : : : : : : ) $ ",
"$ ' : : : : : : : : : : J t t t O.I@u.: J@*+&+K@: : : : : : : : : : : : : : : : : : : : : x.Q+t t t C+: : : Z.L@q.: : : : : ) $ ",
"$ , : : : : : : : : : : !.t t t Q.M@: N@O@*+&+P@: : : : : : : : : : : : : : : : : : : : : q.N t t t ^.: : _.t t j : : : : : Q@$ ",
"$ u@: : : : : : : : : D.t t L E.t R@: S@T@&+&+U@: : : : : : : : : : : : : : : : : : : : : ;.U t t t .@: z V@t t j : : : : : > $ ",
"p@^ : : : : : : : : : f.t t W@k.O.X@: 2+Y@*+&+Z@: : : : : : : : : : : : : : : : : : : : : '+f@t t k : : &.`+t E.5+: : : : : c@] ",
"3@- : : : : : : : : 3.f@t Q+r ~+Q.`@ #: .#&+&++#@#: : : : : : : : : : : : : : : : : : : : 7.t t t ##: : $#p.t %#: : : : : : - 3@",
"- & -+: : : : : : : &#Q+t d@: n@t *#=#: -#*+&+&+;#: : : : : : : : : : : : : : : : : : : : &.t t -.>#: : : I.&.,#: : : : : -+& - ",
"~@ @!@: : : : : : : : '#)@)#: {+t !#~#: {#*+&+&+]#: : : : : : : : : : : : : : : : : : : : z.t t ^#: : : : : : : : : : : : d  @X ",
"  $ 1 : : : : : : : : : : : : .@t t /#: : (#x@&+&+_#: : : : : : : : : : : : :#: : : : : >.<#t t l : : : : : : : : : : : : 1 $   ",
"  = E+: : : : : : %.[#: : : : : .+t Q.}#: |#1#&+&+&+2#: : : : : : : : : 3#4#5#: : : : : 6#t t 7#: : 8#j 9#: : : : : : : : E+*   ",
"  D+& -+: : : : X.0#t l : : : : a.t O.a#,#: b#c#&+&+&+d#e#f#: : : : g#h#i#&+j#: : : : X.8+t t k#: : l#t t L@: : : : : : -+& P   ",
"    $ j+: : : : 6#t t j : : : : : ,+t n+m#: : n#*+*+&+&+&+o#}@_#p#(@q#&+&+&+&+r#: : : s.t t `+s#: z Q+t t L@: : : : : : 4.$     ",
"    6+!+: : : 9#C+t t l : : : : >+>@t t t#u#: : v#w#&+&+&+&+&+&+&+&+&+&+&+*+x#y#: : z#t t t k : : e@t t ^#: : : : : : : A#=     ",
"    g $ )+: : B#t t C#: : : : : e@t t t P.D#E#: : F#&+&+&+&+*+*+*+*+&+x@x#1+G#: : H#I#t t t y.: : ].t t l : : : : : : n.$ g     ",
"      $ `.: : J#^#b.K#: : : : : j.t f@L#t P.M#r : N#*+&+*+O#P#Q#Q#R#S#T#U#: : >#V#P.O.t t -.W#: X#t t Y#: : : : : : : G.$       ",
"      F.$ n.: : : : : : : : : Z#t t C#: y g+`#:  $*+&+x@.$: 2 +$@$#$: : : : $$%$O.t t t t q : X.u t t &$: : : : : : n.$ g       ",
"        $ m.: : : : : : : : : i+t t W.: : *$=$-$;$*+&+>$,$: : : : : : '$)$!$O.t t N.~$t t =.: )#{$t Y.r : : : : : : v $         ",
"        % $ d.: : : : : : : : k#t m+r : : : : ]$^$&+*+/$: u.($_$:$<$[$}$t t t t d@L.0+t |$: : : 1$C#V : : : : : : 4.$ %         ",
"          /.(.< : : : : : : : :  +x.: : : : : S@2$3$*+4$: 5$t t t t t t t t 6$J.: 6.t t W.: : : : : : : : : : : _ (./.          ",
"            $ 7$: : : : : : : : : : : : : : : : : : 8$N@: 9$0$N.<#t t Q+A a$: : >#8+t Q+8#: : : : : : : : : : : '.$             ",
"            - $ #.: : : : : : : : : : : : : : : : : : : : b$z s#k#t t V.: : : : c$t t L#: : : : : : : : : : : d$$ @.            ",
"              +.$ e$: : : : : : : : : : : : s#R+f$: : : : : : : k t t a$: : : : I.v.t l : : : : : : : : : : e$$ X               ",
"                P $ Q : : : : : : : : : : : V@t }$g$: : : : : ).t t M : : : : : : h$O : : : : : : : : : : Q $ P                 ",
"                  G $ i$: : : : : : : : : m@t t v.r : : : : : K#t t *.: : : : : : : : : : : : : : : : : H $ G                   ",
"                    F $ x : : : : : : : : z.t t J : : : : : : : H@,@: : : : : : : : : : : : : : : : : E $ w                     ",
"                      v $ ^ j$: : : : : : B#t t h$: : : : : a$k$l$: : : : : : : : : : : : : : : : o n $ m                       ",
"                        - $ h 4 : : : : : : 1.a$: : : : : : ].t t O : : : : : : : : : : : : : : i h $ g                         ",
"                            f $ e d : : : : : : : : : : : : L@t m$X.: : : : : : : : : : : : d c $ b                             ",
"                              6 $ 7 a 0 : : : : : : : : : : ;.9+h+: : : : : : : : : : : 9 8 7 $ 6                               ",
"                                  5 $ $ | 4 3 : : : : : : : : : : : : : : : : : : 2 1 | $ $ {                                   ",
"                                      { ] $ {@} [ ( < : : : : : : : : : : _ ( / } ] $ ] {                                       ",
"                                            % & $ = = - ~ ! , ) ) , `.~ @.= = $ & %                                             ",
"                                                  . + @ # $ $ $ $ $ $ # @ + .                                                   "};
